<svg width="18" height="22" viewBox="0 0 18 22" fill="none" xmlns="http://www.w3.org/2000/svg">
<path d="M8.99997 0.928558C13.6157 0.928558 17.3571 4.66999 17.3571 9.2857C17.3571 12.8171 14.8757 16.6657 9.97711 20.8726C9.70473 21.1065 9.35745 21.2351 8.99836 21.2347C8.63928 21.2344 8.29222 21.1053 8.02025 20.8708L7.69625 20.5897C3.01454 16.4926 0.642822 12.7383 0.642822 9.2857C0.642822 4.66999 4.38425 0.928558 8.99997 0.928558ZM8.99997 6.07142C8.14748 6.07142 7.32992 6.41006 6.72712 7.01286C6.12433 7.61565 5.78568 8.43322 5.78568 9.2857C5.78568 10.1382 6.12433 10.9557 6.72712 11.5585C7.32992 12.1613 8.14748 12.5 8.99997 12.5C9.85245 12.5 10.67 12.1613 11.2728 11.5585C11.8756 10.9557 12.2143 10.1382 12.2143 9.2857C12.2143 8.43322 11.8756 7.61565 11.2728 7.01286C10.67 6.41006 9.85245 6.07142 8.99997 6.07142Z" fill="#F5313F"/>
</svg>
